<svg id="Layer_1" enable-background="new 0 0 256 256" height="512" viewBox="0 0 256 256" width="512" xmlns="http://www.w3.org/2000/svg"><path d="m22.932 131.984c-2.524 0-5.009-1.192-6.564-3.419-2.531-3.622-1.647-8.609 1.975-11.14l65.926-46.062c2.765-1.933 6.446-1.921 9.201.026l16.284 11.515c3.607 2.551 4.464 7.544 1.913 11.151-2.552 3.607-7.543 4.464-11.151 1.913l-11.692-8.269-61.316 42.841c-1.397.977-2.994 1.444-4.576 1.444z" fill="#f4efed"/><path d="m22.932 133.984c-3.268 0-6.335-1.597-8.204-4.273-1.53-2.189-2.116-4.844-1.649-7.474s1.93-4.921 4.119-6.451l65.926-46.062c3.443-2.407 8.067-2.396 11.501.033l16.284 11.515c4.503 3.183 5.575 9.436 2.392 13.938-3.183 4.5-9.436 5.576-13.938 2.391l-10.545-7.457-60.164 42.036c-1.691 1.181-3.669 1.804-5.722 1.804zm65.918-62.059c-1.204 0-2.406.359-3.436 1.078l-65.926 46.062c-1.313.918-2.191 2.292-2.472 3.871-.279 1.578.072 3.17.99 4.484 1.121 1.605 2.963 2.564 4.925 2.564 1.23 0 2.416-.374 3.43-1.082l61.316-42.841c.691-.483 1.612-.48 2.3.007l11.692 8.269c2.702 1.911 6.454 1.266 8.364-1.435.925-1.308 1.285-2.898 1.015-4.478-.271-1.58-1.142-2.959-2.449-3.885l-16.284-11.516c-1.035-.731-2.251-1.098-3.465-1.098z" fill="#690589"/><path d="m233.068 131.984c2.524 0 5.009-1.192 6.564-3.419 2.531-3.622 1.646-8.609-1.975-11.14l-65.926-46.062c-2.765-1.933-6.446-1.921-9.201.026l-16.284 11.515c-3.607 2.551-4.464 7.544-1.913 11.151 2.552 3.607 7.543 4.464 11.151 1.913l11.692-8.269 61.316 42.841c1.397.977 2.994 1.444 4.576 1.444z" fill="#f4efed"/><path d="m233.068 133.984c-2.054 0-4.031-.624-5.721-1.803l-60.164-42.036-10.545 7.457c-4.502 3.183-10.754 2.109-13.938-2.39-3.184-4.503-2.111-10.756 2.392-13.939l16.284-11.515c3.435-2.429 8.059-2.44 11.501-.033l65.926 46.061c2.189 1.53 3.652 3.821 4.119 6.451s-.119 5.285-1.649 7.474c-1.87 2.676-4.937 4.273-8.205 4.273zm-65.891-48.283c.4 0 .802.12 1.146.36l61.316 42.841c1.014.708 2.199 1.082 3.43 1.082 1.962 0 3.804-.958 4.925-2.564.918-1.314 1.27-2.907.99-4.484-.28-1.578-1.158-2.953-2.472-3.871l-65.926-46.062c-2.067-1.446-4.84-1.438-6.901.02l-16.285 11.516c-1.308.925-2.178 2.305-2.449 3.885s.09 3.17 1.015 4.479c1.91 2.7 5.663 3.345 8.364 1.435l11.692-8.269c.346-.246.75-.368 1.155-.368z" fill="#690589"/><path d="m244.019 116.267h-.738-107.149-16.264-107.149-.738c-4.194 0-7.852 3.232-7.978 7.424-.13 4.338 3.348 7.895 7.657 7.895h3.185l6.402 46.135c.665 4.79 4.76 8.356 9.595 8.356h70.902c4.836 0 8.931-3.566 9.595-8.356 1.041-7.499 7.452-13.083 15.023-13.083h3.274c7.571 0 13.983 5.583 15.023 13.083.665 4.79 4.76 8.356 9.595 8.356h70.902c4.836 0 8.931-3.566 9.596-8.356l6.402-46.135h3.185c4.309 0 7.786-3.557 7.656-7.895-.124-4.192-3.782-7.424-7.976-7.424z" fill="#f4efed"/><path d="m244.019 116.267h-.738-8.262c4.194 0 7.852 3.232 7.978 7.424.13 4.338-3.348 7.895-7.656 7.895-1.826 0-3.372 1.346-3.623 3.155l-5.964 42.98c-.665 4.79-4.76 8.356-9.596 8.356h9c4.836 0 8.931-3.566 9.596-8.356l6.402-46.135h3.185c4.309 0 7.786-3.557 7.656-7.895-.126-4.192-3.784-7.424-7.978-7.424z" fill="#d6d1cf"/><path d="m11.981 116.267h.738 8.262c-4.194 0-7.852 3.232-7.977 7.424-.13 4.338 3.348 7.895 7.656 7.895 1.826 0 3.372 1.346 3.623 3.155l5.964 42.98c.665 4.79 4.76 8.356 9.596 8.356h-9c-4.836 0-8.931-3.566-9.596-8.356l-6.402-46.135h-3.185c-4.309 0-7.786-3.557-7.656-7.895.125-4.192 3.783-7.424 7.977-7.424z" fill="#fff"/><path d="m29.762 176.251c-.982 0-1.839-.724-1.979-1.725l-1.665-12c-.151-1.094.612-2.104 1.707-2.256 1.084-.155 2.104.611 2.256 1.706l1.665 12c.151 1.094-.612 2.104-1.707 2.256-.093.013-.185.019-.277.019z" fill="#690589"/><path d="m225.157 188.078h-70.901c-5.802 0-10.778-4.334-11.577-10.081-.898-6.475-6.506-11.357-13.042-11.357h-3.273c-6.536 0-12.144 4.883-13.042 11.357-.799 5.747-5.775 10.081-11.577 10.081h-70.903c-5.803 0-10.779-4.334-11.576-10.082l-6.162-44.409h-1.444c-2.636 0-5.098-1.042-6.934-2.934-1.835-1.891-2.802-4.385-2.722-7.022.154-5.163 4.629-9.364 9.977-9.364h232.037c5.348 0 9.822 4.201 9.977 9.365.08 2.637-.887 5.13-2.722 7.021-1.836 1.892-4.298 2.934-6.934 2.934h-1.443l-6.162 44.41c-.796 5.747-5.774 10.081-11.577 10.081zm-98.794-25.439h3.273c8.522 0 15.833 6.366 17.005 14.808.524 3.78 3.798 6.631 7.614 6.631h70.901c3.817 0 7.091-2.851 7.614-6.63l6.402-46.135c.138-.989.983-1.725 1.981-1.725h3.185c1.544 0 2.987-.61 4.062-1.719 1.075-1.108 1.642-2.569 1.595-4.116-.09-3.025-2.772-5.485-5.979-5.485h-232.035c-3.206 0-5.889 2.46-5.979 5.484-.047 1.547.52 3.009 1.595 4.117 1.075 1.109 2.519 1.719 4.062 1.719h3.185c.998 0 1.844.736 1.981 1.725l6.402 46.135c.523 3.78 3.797 6.631 7.613 6.631h70.902c3.816 0 7.09-2.851 7.614-6.631 1.174-8.443 8.485-14.809 17.007-14.809z" fill="#690589"/><path d="m81.241 173.004h-26.134c-12.642 0-22.89-10.248-22.89-22.89 0-12.642 10.248-22.89 22.89-22.89h26.134c12.642 0 22.89 10.248 22.89 22.89 0 12.642-10.248 22.89-22.89 22.89z" fill="#ff4397"/><path d="m200.893 173.004h-26.134c-12.642 0-22.89-10.248-22.89-22.89 0-12.642 10.248-22.89 22.89-22.89h26.134c12.642 0 22.89 10.248 22.89 22.89 0 12.642-10.249 22.89-22.89 22.89z" fill="#7bac51"/><g fill="#690589"><path d="m81.241 175.004h-26.134c-13.725 0-24.89-11.166-24.89-24.89s11.165-24.89 24.89-24.89h26.134c13.725 0 24.89 11.166 24.89 24.89s-11.165 24.89-24.89 24.89zm-26.134-45.78c-11.519 0-20.89 9.371-20.89 20.89s9.371 20.89 20.89 20.89h26.134c11.519 0 20.89-9.371 20.89-20.89s-9.371-20.89-20.89-20.89z"/><path d="m200.893 175.004h-26.134c-13.725 0-24.89-11.166-24.89-24.89s11.165-24.89 24.89-24.89h26.134c13.725 0 24.89 11.166 24.89 24.89-.001 13.724-11.166 24.89-24.89 24.89zm-26.134-45.78c-11.519 0-20.89 9.371-20.89 20.89s9.371 20.89 20.89 20.89h26.134c11.519 0 20.89-9.371 20.89-20.89s-9.371-20.89-20.89-20.89z"/></g></svg>